<svg width="942" height="1415" viewBox="0 0 942 1415" fill="none" xmlns="http://www.w3.org/2000/svg">
<g opacity="0.3">
<path opacity="0.3" d="M181.088 612.2L-188 449.162L-152.096 368.03L216.992 531.068L181.088 612.2Z" fill="#2DC7C6"/>
<path opacity="0.3" d="M252.88 449.936L191.189 422.687L44.7181 115.502L-42.2237 312.018L-113.415 280.574L19.6881 -20.2548L81.3791 6.99443L227.85 314.179L317.601 111.308L388.776 142.846L252.88 449.936Z" fill="#2DC7C6"/>
<path opacity="0.3" d="M424.443 62.1704L55.3549 -100.867L91.2585 -182L460.347 -18.9622L424.443 62.1704Z" fill="#2DC7C6"/>
<path opacity="0.3" d="M465.728 1414.03L44.355 1376.19L82.2312 1290.48L361.963 1324.02L150.598 1133.22L180.946 1064.65L464.466 1092.44L251.412 908.267L288.42 824.691L599.968 1110.74L569.162 1180.35L294.749 1157.17L496.519 1344.46L465.728 1414.03Z" fill="#2DC7C6"/>
<path opacity="0.3" d="M664.689 957.34L367.155 639.575L399.792 565.823L835.227 571.909L798.235 655.486L701.966 652.664L633.93 806.413L700.719 875.798L664.689 957.34ZM575.822 746.695L618.559 650.077L479.19 646.261L575.822 746.695Z" fill="#2DC7C6"/>
<path opacity="0.3" d="M905.614 412.878L762.142 349.502L479.9 391.842L521.264 298.346L705.722 276.143L598.721 123.308L638.949 32.4619L795.978 268.858L941.012 332.944L905.614 412.878Z" fill="#2DC7C6"/>
</g>
</svg>
