<svg width="167" height="66" viewBox="0 0 167 66" fill="none" xmlns="http://www.w3.org/2000/svg">
<path d="M65.784 65.8658H17.5226L37.6036 7.30765H7.28868V58.2897H12.48V65.5899H0V0H47.8152L27.7342 58.5581H58.5028V7.53135H52.8801V0.23116H65.784V65.8658Z" fill="#2DC7C6"/>
<path d="M80.0565 24.3986V0.231201H85.3593V24.3986H80.0565Z" fill="#2DC7C6"/>
<path d="M90.6622 24.3986V20.3571L103.916 4.89169H91.0713V0.231201H110.736V4.26532L97.4749 19.7381H110.736V24.3986H90.6622Z" fill="#2DC7C6"/>
<path d="M116.024 24.3986V0.231201H121.327V24.3986H116.024Z" fill="#2DC7C6"/>
<path d="M86.1849 66L77.9517 41.6611H83.6339L88.6244 58.0213L94.0314 41.6163H98.5756L103.983 58.0213L108.981 41.6611H114.536L106.296 66H101.677L96.2403 50.1842L90.7961 66H86.1849Z" fill="#2DC7C6"/>
<path d="M116.381 65.8285L126.711 41.4821H131.642L141.973 65.8285H136.425L134.193 60.4074H123.989L121.758 65.8285H116.381ZM125.886 55.7096H132.29L129.091 47.8725L125.886 55.7096Z" fill="#2DC7C6"/>
<path d="M152.467 65.8285V56.2987L143.171 41.661H149.373L155.122 51.3548L160.976 41.661H167L157.74 56.1943V65.8285H152.467Z" fill="#2DC7C6"/>
</svg>
