<svg width="153" height="60" viewBox="0 0 153 60" fill="none" xmlns="http://www.w3.org/2000/svg">
<path d="M60.2692 59.878H16.0536L34.4512 6.64332H6.67765V52.9906H11.4338V59.6272H0V0H43.8068L25.4091 53.2347H53.5984V6.84668H48.447V0.210146H60.2692V59.878Z" fill="#192140"/>
<path d="M73.3452 22.1805V0.210144H78.2035V22.1805H73.3452Z" fill="#192140"/>
<path d="M83.0618 22.1805V18.5064L95.2043 4.44695H83.4366V0.210144H101.453V3.87753L89.3034 17.9437H101.453V22.1805H83.0618Z" fill="#192140"/>
<path d="M106.297 22.1805V0.210144H111.156V22.1805H106.297Z" fill="#192140"/>
<path d="M78.9598 60L71.4168 37.8737H76.6227L81.1948 52.7466L86.1485 37.833H90.3118L95.2656 52.7466L99.8445 37.8737H104.935L97.3847 60H93.1533L88.1723 45.622L83.1845 60H78.9598Z" fill="#192140"/>
<path d="M106.624 59.8441L116.089 37.711H120.607L130.071 59.8441H124.988L122.944 54.9158H113.595L111.551 59.8441H106.624ZM115.333 50.6451H121.199L118.269 43.5205L115.333 50.6451Z" fill="#192140"/>
<path d="M139.686 59.8441V51.1807L131.168 37.8737H136.851L142.118 46.6863L147.481 37.8737H153L144.517 51.0858V59.8441H139.686Z" fill="#192140"/>
</svg>
